<svg xmlns="http://www.w3.org/2000/svg" viewBox="0 0 100 100">
  <rect width="100" height="100" rx="16" fill="#1a1a2e"/>
  <path d="M50 82C30 82 15 69 15 52c0-5 1.5-10 4-14C23 31 34 22 50 22s27 9 31 16c2.5 4 4 9 4 14 0 17-15 30-35 30z" fill="#f5e6c8" stroke="#d4a76a" stroke-width="2"/>
  <path d="M50 30c-8 0-15 3-20 8l3 3c4-4 10-6 17-6s13 2 17 6l3-3c-5-5-12-8-20-8z" fill="#e8d5b0"/>
  <circle cx="38" cy="48" r="5" fill="#d4a76a" opacity="0.6"/>
  <circle cx="56" cy="50" r="4" fill="#d4a76a" opacity="0.5"/>
  <circle cx="47" cy="56" r="3.5" fill="#c49454" opacity="0.4"/>
</svg>
